<svg width="112" height="108" viewBox="0 0 112 108" fill="none" xmlns="http://www.w3.org/2000/svg">
<path d="M7.42149 106.39C7.42149 106.39 6.27975 18.4735 7.42152 17.3318C8.5633 16.19 24.0486 21.7255 31.9696 43.5925V97.8268C28.1997 107.1 21.9014 108.035 7.42149 106.39Z" fill="#2EA3B5"/>
<path d="M102.76 67.5698C103.901 58.0699 101.569 -0.0206147 102.76 0.205165C86.4913 -0.392289 78.7824 2.48869 77.6406 10.4811C76.4988 18.4735 78.2115 66.428 78.2115 66.428C82.7786 80.7002 101.618 77.0697 102.76 67.5698Z" fill="#2EA3B5"/>
<path d="M21.1228 16.19C16.5557 12.7647 10.2167 8.83962 0 9.91023C4.84903 3.94957 9.13419 1.34694 17.1266 0.205165C25.119 -0.936615 33.1114 3.05959 33.1114 3.05959C42.8664 8.7236 49.0963 14.4773 54.2343 23.6115C60.9779 35.6001 67.3647 56.152 67.3647 56.152C71.245 67.3067 73.5 73.7114 78.2115 77.5C95 91 111.5 71.5 111.5 71.5C113.027 87.329 97.9102 108.484 80.5 106.39C71.7502 105.338 64 96 60.514 92.1179C57.028 88.2358 46.7717 68.5473 39.3912 43.5925C34.7138 31.0654 25.6899 19.6153 21.1228 16.19Z" fill="#2EA3B5"/>
</svg>
