<svg width="564" height="152" viewBox="0 0 564 152" fill="none" xmlns="http://www.w3.org/2000/svg">
<path d="M7.42149 106.39C7.42149 106.39 6.27975 18.4735 7.42152 17.3318C8.5633 16.19 24.0486 21.7255 31.9696 43.5925V97.8268C28.1997 107.1 21.9014 108.035 7.42149 106.39Z" fill="white"/>
<path d="M102.76 67.5698C103.901 58.0699 101.569 -0.0206147 102.76 0.205165C86.4913 -0.392289 78.7824 2.48869 77.6406 10.4811C76.4989 18.4735 78.2115 66.428 78.2115 66.428C82.7786 80.7002 101.618 77.0697 102.76 67.5698Z" fill="white"/>
<path d="M21.1228 16.19C16.5557 12.7647 10.2167 8.83962 0 9.91023C4.84903 3.94957 9.13419 1.34694 17.1266 0.205165C25.119 -0.936615 33.1114 3.05959 33.1114 3.05959C42.8664 8.7236 49.0963 14.4773 54.2343 23.6115C60.9779 35.6001 67.3647 56.152 67.3647 56.152C71.245 67.3067 73.9211 72.7515 80.4951 79.5584C89.6347 86.1707 94.7612 86.5034 103.901 79.5584C109.442 74.3217 111.998 69.1485 115.319 56.152C118.572 46.1726 121.294 40.9512 130.162 33.3166C139.571 26.9947 145.549 24.8215 158.136 24.7533C170.701 25.7496 176.576 27.7315 184.967 33.8874C193.31 41.0662 196.334 45.6113 195.814 55.5812C194.252 66.9209 187.822 72.1369 176.975 73.8495C166.128 75.5622 139.867 73.8495 139.867 73.8495C141.29 80.1334 143.483 82.4128 147.289 85.2673C151.095 88.1217 165.626 91.2031 176.975 85.8382C185.043 81.1503 189.453 77.949 196.956 70.4242C203.827 61.4317 206.375 54.4394 208.374 44.1634C210.372 33.8874 209.516 0.205165 209.516 0.205165H233.493V83.364C234.064 86.409 239.814 86.9778 244.911 84.6964C248.95 81.2858 250.931 78.9347 254.045 73.8495C259.408 66.3103 262.758 62.857 270.03 59.5774C274.48 57.8653 277.451 57.8647 280.876 58.4356C284.302 59.0065 288.877 62.3288 290.011 65.2862C286.024 64.2979 284.114 64.124 281.447 64.7153C279.15 65.4575 277.451 66.9989 276.88 67.5698C276.309 68.1407 274.557 70.8761 274.026 73.2786C273.739 74.9703 273.719 75.9722 274.026 77.8457C275.039 81.5789 276.172 83.2057 279.164 85.2673C284.652 87.9785 288.412 87.5508 293.436 85.2673C299.716 82.4128 304.529 74.9617 303.712 64.7153C303.066 52.252 295.149 45.8761 286.585 45.8761C281.447 45.8761 276.107 47.5486 271.171 53.8685C261.673 55.7594 255.754 61.3335 244.34 77.8457C242.791 65.4302 243.769 55.0103 247.194 47.5887C250.619 40.1672 255.186 34.0487 259.754 31.033C264.321 28.0174 270.931 24.7494 280.876 24.7533C291.628 25.2016 296.74 27.5485 304.283 35.6001V25.895H326.547L325.976 106.39H303.712V96.685C297.105 105.707 291.372 108.364 276.88 108.103C266.794 106.977 261.963 104.714 254.616 97.8268C248.063 104.835 243.869 107.255 235.205 108.103C226.405 108.369 219.791 105.819 215.795 102.394C211.799 98.9685 208.387 91.5771 207.803 82.9837C198.498 94.8165 192.256 100.05 178.117 105.248C164.901 109.376 151.856 108.103 143.864 105.819C135.871 103.536 125.914 97.5398 119.315 86.9799C111.197 101.659 105.289 107.017 90.771 108.103C79.3165 108.297 72.7211 105.267 60.514 92.1179C51.288 79.9178 46.7717 68.5473 39.3912 43.5925C34.7138 31.0654 25.6899 19.6153 21.1228 16.19Z" fill="white"/>
<path d="M357.375 25.895H333.969C333.969 25.895 362.513 93.2597 364.226 97.8268C365.939 102.394 361.451 112.711 354.521 121.233C346.367 130.314 336.823 132.651 325.976 129.796C315.701 127.092 306.566 117.978 295.719 116.095C286.99 114.58 282.018 114.953 275.168 118.379C268.317 121.804 258.378 132.144 255.757 142.356C264.538 131.509 280.686 128.655 291.152 134.934C308.279 145.21 316.672 148.102 323.693 150.348C330.713 152.594 348.634 154.466 362.513 142.356C370.615 135.852 374.778 131.253 380.782 119.52L391.058 97.8268C398.771 82.8326 403.139 76.1558 411.039 68.1406C418.615 60.6896 422.965 57.298 431.02 52.7267C441.481 47.1467 451.572 44.7343 458.993 45.8761C466.415 47.0178 473.265 52.7267 475.549 60.1482C477.832 67.5698 475.887 76.0502 470.411 83.5546C484.863 85.7791 491.563 85.7032 499.526 81.8419V25.895H474.407V35.6001C469.138 29.8511 464.131 27.0368 460.135 25.895C456.139 24.7533 448.256 24.6769 442.437 25.895C433.739 28.1412 428.747 30.1842 419.602 35.6001C411.255 40.6551 405.966 44.7112 394.483 55.5811C386.684 64.0736 382.916 69.4285 376.785 79.5584L357.375 25.895Z" fill="white"/>
<path d="M393.341 25.895L381.353 60.7191C390.549 48.5487 396.667 41.9195 412.18 31.033C415.291 28.7323 416.613 27.6311 418.46 25.895H393.341Z" fill="white"/>
<path d="M450.43 53.8685C453.855 53.8685 458.481 56.5896 460.135 60.1482C454.579 59.0015 451.572 60.1482 449.288 61.29C447.004 62.4318 443.579 64.7153 442.437 68.1406C441.313 71.5134 441.642 72.8647 442.402 75.9859L442.437 76.1331C444.15 80.7002 446.434 82.9837 450.43 84.6964C454.892 86.6087 457.851 87.2913 462.418 88.1217C468.698 89.2635 474.626 90.5842 481.258 90.4052C489.674 90.5231 494.209 89.8944 501.81 87.5508C510.479 84.4073 514.437 80.0444 520.649 69.8533C525.161 60.7415 527.351 57.7441 530.925 54.4394C535.145 50.5988 539.488 48.7305 545.768 48.7305C552.048 48.7305 556.691 50.5459 561.753 55.5811C553.382 53.3502 549.193 54.0968 545.768 56.152C541.011 59.0065 537.776 64.7153 537.776 69.8533V106.39H513.798V97.8268C506.848 103.465 502.667 105.605 494.388 106.39C485.326 107.341 480.596 106.188 472.694 101.252C460.997 109.308 454.385 110.546 442.437 106.39C432.152 101.571 426.208 92.6888 423.598 88.1217C421.315 84.1255 417.919 74.3761 420.744 68.1406C423.027 65.2862 432.313 58.8337 440.725 55.5811C443.986 54.4091 447.004 53.8685 450.43 53.8685Z" fill="white"/>
<path d="M513.798 69.2824V25.895H537.776V38.4545C541.772 32.9746 544.364 30.5562 549.764 27.6077C554.636 25.2829 557.679 24.763 563.465 24.7533V49.8723C557.309 45.2281 553.461 43.6189 545.768 43.5925C539.213 43.3923 535.336 44.7022 528.07 49.3014C522.666 53.408 519.498 58.7198 513.798 69.2824Z" fill="white"/>
</svg>
